<svg id="Layer_1" data-name="Layer 1" xmlns="http://www.w3.org/2000/svg" viewBox="0 0 356 728"><defs><style>.cls-1{fill:#fff;}.cls-2,.cls-3,.cls-4,.cls-5{fill:none;stroke:#474747;stroke-miterlimit:10;}.cls-3{stroke-dasharray:11.83 11.83;}.cls-4{stroke-dasharray:12.21 12.21;}.cls-5{stroke-dasharray:11.8 11.8;}</style></defs><title>strategypath-mobile</title><rect class="cls-1" width="356" height="728"/><path class="cls-2" d="M885.5,177.5q.91,2.72,1.82,5.71" transform="translate(-801 -129.5)"/><path class="cls-3" d="M890.34,194.65a145.61,145.61,0,0,1,2.16,54.85c-7.23,45.92-34.43,65.27-25,87,7.24,16.68,30.16,21.14,68,28a424.64,424.64,0,0,0,101.11,5.86" transform="translate(-801 -129.5)"/><path class="cls-2" d="M1042.52,370q3-.21,6-.47.32,3,.67,6" transform="translate(-801 -129.5)"/><path class="cls-4" d="M1050.8,387.57c6.84,45.16,20,77.13,31.7,98.93,7.86,14.66,18.26,30.71,12,44-6.54,13.88-27.2,16.12-57,20-22.63,3-55.26,7.46-96,14" transform="translate(-801 -129.5)"/><path class="cls-2" d="M935.42,565.53l-5.92,1c-1.07,1.59-2.17,3.27-3.3,5" transform="translate(-801 -129.5)"/><path class="cls-5" d="M920,581.52a379.14,379.14,0,0,0-30.46,63c-13.39,35.79-21.29,56.88-16,75,10.71,36.72,74.64,58.11,157.1,57.27" transform="translate(-801 -129.5)"/><path class="cls-2" d="M1036.5,776.67q3-.06,6-.17" transform="translate(-801 -129.5)"/></svg>