<svg id="Layer_1" data-name="Layer 1" xmlns="http://www.w3.org/2000/svg" viewBox="0 0 356 728"><defs><style>.cls-1,.cls-2,.cls-3{fill:none;}.cls-2,.cls-3{stroke:#878787;stroke-miterlimit:10;}.cls-3{stroke-dasharray:12.1 12.1;}</style></defs><title>strategypath-transparent-mobile</title><rect class="cls-1" width="356" height="728"/><path class="cls-2" d="M885.5,177.5q.91,2.72,1.82,5.71" transform="translate(-801 -129.5)"/><path class="cls-3" d="M890.4,194.91a145.44,145.44,0,0,1,2.1,54.59c-7.23,45.92-34.43,65.27-25,87,8.6,19.8,40.24,24.14,68,28,60.17,8.37,87.61-12.2,104,5,15.84,16.62-6.27,39.53,13,75,9,16.49,17,17.56,30,42,9,17,17.08,32.15,12,44-5.29,12.34-22.71,16.26-57,20-90.65,9.89-112.2-1.84-130,16-10.68,10.7-4.63,16.62-18,78-12.15,55.76-19.52,61.8-16,75,4.36,16.37,26.29,46.83,157,56.21" transform="translate(-801 -129.5)"/><path class="cls-2" d="M1036.51,776.13l6,.37" transform="translate(-801 -129.5)"/></svg>