<svg id="Layer_1" data-name="Layer 1" xmlns="http://www.w3.org/2000/svg" viewBox="0 0 562 806"><defs><style>.cls-1,.cls-2,.cls-3{fill:none;}.cls-2,.cls-3{stroke:gray;stroke-miterlimit:10;}.cls-3{stroke-dasharray:12.01 12.01;}</style></defs><title>strategypath-transparent-desktop</title><rect class="cls-1" width="562" height="806"/><path class="cls-2" d="M826.5,251.5q0,3.06,0,6" transform="translate(-691.5 -89.5)"/><path class="cls-3" d="M827,269.51c3,48.13,18.94,71.54,34.5,84,40,32,109.46,16.95,206,53,0,0,17.88,6.68,17,11-2.29,11.27-132.66-29.18-207,25-8.46,6.16-34.78,25.34-36,53-.68,15.27,6.57,27,9,31,34.76,56.52,178.37,30,242,94,20.68,20.81,40.76,59.08,34.2,136" transform="translate(-691.5 -89.5)"/><path class="cls-2" d="M1126.14,762.53c-.19,2-.41,4-.64,6" transform="translate(-691.5 -89.5)"/></svg>